:FULLY-SPECIFIED
:FORCE-ALL-JOINTS-BE-3DOF
:DEGREES
162
root 8.24629 16.5753 -14.1584 8.05661 9.71629 -0.635221
lfemur -4.13204 8.04493 -13.8959
ltibia 52.1362 -0 0
lfoot 3.36655 12.1821 -0.0377605
ltoes -12.1019 0 0
rfemur -30.2108 1.29741 23.2979
rtibia 31.7527 -0 0
rfoot -12.1375 0.0523008 -0.00247347
rtoes -14.4833 0 0
lowerback -5.09074 -2.15495 -0.776863
upperback -1.94437 -2.87741 3.56029
thorax 1.07265 -1.43033 3.92936
lowerneck -18.8121 -6.97225 -14.997
upperneck 14.9188 -8.39029 14.8819
head 9.08789 -3.37473 6.47822
lclavicle 2.86043e-14 -9.14409e-15 0
lhumerus -43.6986 -9.96232 95.5653
lradius 23.9257 -0 0
lwrist -0.0610367 0 0
lhand -0.890006 -17.9851 0.0028792
lfingers 7.12502 0 0
lthumb 24.7373 10.4323 0.00176313
rclavicle 2.86043e-14 -9.14409e-15 0
rhumerus -45.3948 8.1992 -81.5044
rradius 32.8275 -0 0
rwrist -17.9788 0 0
rhand -28.3187 -28.3158 -0.00513549
rfingers 7.12502 0 0
rthumb -1.69373 -58.2881 -0.00498626
163
root 8.22926 16.6107 -14.0339 8.16814 9.6865 -0.720423
lfemur -5.87019 8.07046 -14.0811
ltibia 54.2525 0 0
lfoot 2.51013 13.1915 0
ltoes -10.5354 0 0
rfemur -29.4704 1.23328 23.5451
rtibia 31.0438 0 0
rfoot -12.4074 0.262309 0
rtoes -14.946 0 0
lowerback -5.02286 -2.03316 -0.732397
upperback -1.99019 -2.71539 3.58917
thorax 0.974717 -1.34756 3.94971
lowerneck -18.5996 -7.02721 -15.1065
upperneck 14.6736 -8.47255 15.0358
head 8.99298 -3.41434 6.53462
lclavicle 3.60297e-14 -7.95139e-15 0
lhumerus -44.4565 -11.1407 96.4025
lradius 24.8871 0 0
lwrist 1.35588 0 0
lhand -0.454373 -17.8336 0
lfingers 7.12502 0 0
lthumb 25.1551 10.529 0
rclavicle 3.60297e-14 -7.95139e-15 0
rhumerus -45.2086 8.65175 -81.5253
rradius 33.2742 0 0
rwrist -18.1265 0 0
rhand -28.0664 -28.7822 0
rfingers 7.12502 0 0
rthumb -1.45006 -58.757 0
164
root 8.21989 16.6332 -13.912 8.12559 9.49233 -0.876461
lfemur -7.26069 8.15522 -14.2519
ltibia 55.2881 -0 0
lfoot 1.64733 12.8134 0.0142406
ltoes -11.0403 0 0
rfemur -28.6618 1.36783 23.8197
rtibia 30.4856 -0 0
rfoot -12.6699 0.418147 -0.0017849
rtoes -14.7879 0 0
lowerback -4.97084 -1.85104 -0.572044
upperback -1.9138 -2.48153 3.58114
thorax 1.00256 -1.23159 3.86562
lowerneck -18.574 -7.07729 -15.0548
upperneck 14.5859 -8.55764 15.0681
head 8.97259 -3.44945 6.52213
lclavicle 3.0795e-14 -1.08669e-14 0
lhumerus -44.8007 -11.6619 96.6463
lradius 25.6242 -0 0
lwrist 2.50525 0 0
lhand -0.97005 -18.2893 0.010256
lfingers 7.12502 0 0
lthumb 24.6605 10.1373 0.00845499
rclavicle 3.0795e-14 -1.08669e-14 0
rhumerus -44.9366 9.09317 -81.5353
rradius 33.8754 -0 0
rwrist -18.4262 0 0
rhand -28.3383 -28.1665 -0.00730739
rfingers 7.12502 0 0
rthumb -1.71266 -58.1385 -0.00708877
165
root 8.21052 16.6556 -13.79 8.08361 9.29804 -1.03226
lfemur -8.65172 8.23584 -14.4248
ltibia 56.3238 -0 0
lfoot 0.78446 12.4352 0.0227865
ltoes -11.5452 0 0
rfemur -27.8525 1.49848 24.0963
rtibia 29.9274 -0 0
rfoot -12.9324 0.573992 -0.00285585
rtoes -14.6297 0 0
lowerback -4.91833 -1.66906 -0.411541
upperback -1.83746 -2.24766 3.57342
thorax 1.03024 -1.11557 3.78159
lowerneck -18.5485 -7.12739 -15.003
upperneck 14.4981 -8.64268 15.1005
head 8.95221 -3.48456 6.50965
lclavicle 2.55604e-14 -1.37824e-14 0
lhumerus -45.1478 -12.1816 96.8937
lradius 26.3614 -0 0
lwrist 3.65461 0 0
lhand -1.48579 -18.745 0.0164102
lfingers 7.12502 0 0
lthumb 24.1658 9.7456 0.0135284
rclavicle 2.55604e-14 -1.37824e-14 0
rhumerus -44.6644 9.53463 -81.5432
rradius 34.4765 -0 0
rwrist -18.7259 0 0
rhand -28.6103 -27.5507 -0.0116922
rfingers 7.12502 0 0
rthumb -1.97532 -57.52 -0.0113424
166
root 8.20115 16.6781 -13.6681 8.04218 9.10365 -1.18784
lfemur -10.0433 8.31229 -14.5996
ltibia 57.3594 -0 0
lfoot -0.07845 12.0569 0.0256354
ltoes -12.0501 0 0
rfemur -27.0426 1.62522 24.3746
rtibia 29.3691 -0 0
rfoot -13.1949 0.729839 -0.00321284
rtoes -14.4715 0 0
lowerback -4.8653 -1.48723 -0.250885
upperback -1.76117 -2.01378 3.56601
thorax 1.05774 -0.99952 3.69762
lowerneck -18.523 -7.17751 -14.9513
upperneck 14.4103 -8.72767 15.1331
head 8.93183 -3.51968 6.49719
lclavicle 2.03257e-14 -1.66979e-14 0
lhumerus -45.4979 -12.6998 97.1448
lradius 27.0985 -0 0
lwrist 4.80397 0 0
lhand -2.00157 -19.2008 0.0184617
lfingers 7.12502 0 0
lthumb 23.6712 9.35384 0.0152196
rclavicle 2.03257e-14 -1.66979e-14 0
rhumerus -44.3918 9.97613 -81.549
rradius 35.0776 -0 0
rwrist -19.0256 0 0
rhand -28.8823 -26.935 -0.0131539
rfingers 7.12502 0 0
rthumb -2.23801 -56.9014 -0.0127604
167
root 8.19178 16.7006 -13.5462 8.00131 8.90914 -1.34319
lfemur -11.4353 8.38452 -14.7763
ltibia 58.395 -0 0
lfoot -0.94136 11.6786 0.0227865
ltoes -12.5551 0 0
rfemur -26.2319 1.74801 24.6548
rtibia 28.8109 -0 0
rfoot -13.4573 0.885687 -0.00285585
rtoes -14.3134 0 0
lowerback -4.81177 -1.30555 -0.0900731
upperback -1.68491 -1.77989 3.55891
thorax 1.08508 -0.883426 3.6137
lowerneck -18.4975 -7.22765 -14.8996
upperneck 14.3224 -8.81261 15.1658
head 8.91147 -3.5548 6.48473
lclavicle 1.50911e-14 -1.96134e-14 0
lhumerus -45.8511 -13.2165 97.3997
lradius 27.8356 -0 0
lwrist 5.95334 0 0
lhand -2.51734 -19.6566 0.0164102
lfingers 7.12502 0 0
lthumb 23.1765 8.96208 0.0135284
rclavicle 1.50911e-14 -1.96134e-14 0
rhumerus -44.119 10.4176 -81.5526
rradius 35.6788 -0 0
rwrist -19.3253 0 0
rhand -29.1543 -26.3192 -0.0116922
rfingers 7.12502 0 0
rthumb -2.5007 -56.2829 -0.0113424
168
root 8.18241 16.723 -13.4242 7.96099 8.71452 -1.49831
lfemur -12.8278 8.45247 -14.9547
ltibia 59.4307 -0 0
lfoot -1.80423 11.3004 0.0142406
ltoes -13.06 0 0
rfemur -25.4207 1.86683 24.9367
rtibia 28.2527 -0 0
rfoot -13.7198 1.04153 -0.0017849
rtoes -14.1552 0 0
lowerback -4.75773 -1.12402 0.0708975
upperback -1.60869 -1.54599 3.55213
thorax 1.11224 -0.767292 3.52985
lowerneck -18.4721 -7.27782 -14.848
upperneck 14.2344 -8.8975 15.1987
head 8.8911 -3.58993 6.47229
lclavicle 9.8564e-15 -2.25289e-14 0
lhumerus -46.2074 -13.7316 97.6585
lradius 28.5728 -0 0
lwrist 7.10271 0 0
lhand -3.03308 -20.1123 0.010256
lfingers 7.12502 0 0
lthumb 22.6818 8.57035 0.00845499
rclavicle 9.8564e-15 -2.25289e-14 0
rhumerus -43.8457 10.8592 -81.5541
rradius 36.28 -0 0
rwrist -19.625 0 0
rhand -29.4263 -25.7034 -0.00730739
rfingers 7.12502 0 0
rthumb -2.76336 -55.6644 -0.00708877
169
root 8.17304 16.7455 -13.3023 7.92123 8.5198 -1.65322
lfemur -14.2208 8.51612 -15.1348
ltibia 60.4663 0 0
lfoot -2.66703 10.9223 0
ltoes -13.5649 0 0
rfemur -24.6088 1.98164 25.2202
rtibia 27.6945 0 0
rfoot -13.9823 1.19737 0
rtoes -13.9971 0 0
lowerback -4.70319 -0.94264 0.23203
upperback -1.53251 -1.31208 3.54566
thorax 1.13923 -0.651119 3.44605
lowerneck -18.4467 -7.32801 -14.7963
upperneck 14.1464 -8.98234 15.2317
head 8.87075 -3.62506 6.45986
lclavicle 4.62174e-15 -2.54444e-14 0
lhumerus -46.5669 -14.2452 97.9211
lradius 29.3099 0 0
lwrist 8.25207 0 0
lhand -3.54876 -20.568 0
lfingers 7.12502 0 0
lthumb 22.1872 8.17868 0
rclavicle 4.62174e-15 -2.54444e-14 0
rhumerus -43.5721 11.3007 -81.5535
rradius 36.8811 0 0
rwrist -19.9247 0 0
rhand -29.6982 -25.0877 0
rfingers 7.12502 0 0
rthumb -3.02596 -55.0459 0
170
root 8.16538 16.7465 -13.1859 7.92747 8.32408 -1.68632
lfemur -15.6133 8.5184 -15.4628
ltibia 60.8376 -0 0
lfoot -3.38607 10.6856 0.00742916
ltoes -11.2554 0 0
rfemur -24.1275 2.10305 25.36
rtibia 27.6469 -0 0
rfoot -14.368 1.2963 -0.00166503
rtoes -14.3321 0 0
lowerback -4.61046 -0.759554 0.260337
upperback -1.67674 -1.06176 3.53624
thorax 0.92435 -0.523221 3.43261
lowerneck -17.7336 -7.31583 -15.023
upperneck 13.952 -9.01408 15.3972
head 8.70497 -3.67001 6.55842
lclavicle 4.14134e-15 -2.62395e-14 0
lhumerus -47.0211 -14.0046 97.8831
lradius 29.7785 -0 0
lwrist 9.16858 0 0
lhand -5.0299 -21.5776 0.0653821
lfingers 7.12502 0 0
lthumb 20.762 7.29998 0.0547393
rclavicle 4.14134e-15 -2.62395e-14 0
rhumerus -43.5601 11.4262 -81.37
rradius 37.3894 -0 0
rwrist -20.0879 0 0
rhand -29.8921 -24.8294 -0.00218636
rfingers 7.12502 0 0
rthumb -3.21326 -54.7844 -0.00213719
171
root 8.15771 16.7476 -13.0695 7.93383 8.12837 -1.71943
lfemur -17.0058 8.5128 -15.7908
ltibia 61.209 -0 0
lfoot -4.10513 10.4488 0.0118872
ltoes -8.94585 0 0
rfemur -23.6459 2.22327 25.5008
rtibia 27.5992 -0 0
rfoot -14.7537 1.39524 -0.00266408
rtoes -14.6671 0 0
lowerback -4.51765 -0.576515 0.28894
upperback -1.82099 -0.811467 3.5262
thorax 0.709444 -0.395375 3.41869
lowerneck -17.0206 -7.30086 -15.2495
upperneck 13.7575 -9.04527 15.5629
head 8.53911 -3.71468 6.65711
lclavicle 3.66095e-15 -2.70347e-14 0
lhumerus -47.475 -13.7643 97.8431
lradius 30.2472 -0 0
lwrist 10.0851 0 0
lhand -6.51196 -22.5886 0.104637
lfingers 7.12502 0 0
lthumb 19.3362 6.42019 0.0876017
rclavicle 3.66095e-15 -2.70347e-14 0
rhumerus -43.5477 11.5516 -81.1864
rradius 37.8976 -0 0
rwrist -20.2512 0 0
rhand -30.0861 -24.571 -0.0034982
rfingers 7.12502 0 0
rthumb -3.40056 -54.5229 -0.00341954
172
root 8.15005 16.7486 -12.9531 7.94029 7.93266 -1.75255
lfemur -18.3981 8.49931 -16.1185
ltibia 61.5803 -0 0
lfoot -4.82421 10.212 0.0133733
ltoes -6.63632 0 0
rfemur -23.164 2.34231 25.6426
rtibia 27.5516 -0 0
rfoot -15.1394 1.49419 -0.0029971
rtoes -15.0021 0 0
lowerback -4.42474 -0.393522 0.317839
upperback -1.96529 -0.561199 3.51552
thorax 0.49451 -0.267582 3.40429
lowerneck -16.3077 -7.28309 -15.4757
upperneck 13.5629 -9.0759 15.7287
head 8.37316 -3.75907 6.75593
lclavicle 3.18055e-15 -2.78298e-14 0
lhumerus -47.9287 -13.5244 97.8012
lradius 30.7158 -0 0
lwrist 11.0016 0 0
lhand -7.99448 -23.6002 0.117726
lfingers 7.12502 0 0
lthumb 17.91 5.53985 0.0985589
rclavicle 3.18055e-15 -2.78298e-14 0
rhumerus -43.5349 11.677 -81.0027
rradius 38.4059 -0 0
rwrist -20.4144 0 0
rhand -30.28 -24.3126 -0.00393549
rfingers 7.12502 0 0
rthumb -3.58787 -54.2614 -0.00384699
173
root 8.14239 16.7496 -12.8367 7.94687 7.73696 -1.78567
lfemur -19.7904 8.47796 -16.4458
ltibia 61.9517 -0 0
lfoot -5.54328 9.97517 0.0118872
ltoes -4.32679 0 0
rfemur -22.6817 2.46016 25.7854
rtibia 27.504 -0 0
rfoot -15.525 1.59313 -0.00266408
rtoes -15.3371 0 0
lowerback -4.33175 -0.210576 0.347033
upperback -2.10962 -0.310959 3.50421
thorax 0.279546 -0.139844 3.38941
lowerneck -15.5949 -7.26253 -15.7017
upperneck 13.3682 -9.10598 15.8946
head 8.20712 -3.80316 6.85489
lclavicle 2.70016e-15 -2.8625e-14 0
lhumerus -48.382 -13.2847 97.7574
lradius 31.1844 -0 0
lwrist 11.9181 0 0
lhand -9.477 -24.6119 0.104637
lfingers 7.12502 0 0
lthumb 16.4838 4.65952 0.0876017
rclavicle 2.70016e-15 -2.8625e-14 0
rhumerus -43.5217 11.8023 -80.8188
rradius 38.9141 -0 0
rwrist -20.5776 0 0
rhand -30.474 -24.0543 -0.0034982
rfingers 7.12502 0 0
rthumb -3.77519 -53.9999 -0.00341954
